<?xml version="1.0"?><svg width="700" height="480" xmlns="http://www.w3.org/2000/svg">
 <title>restaurant w/b</title>
 <g>
  <title>Layer 1</title>
  <path id="svg_45" fill-rule="evenodd" fill="#ff2a70" d="m188.160004,197.86644c0,8.441788 -6.848755,17.469803 -15.713013,17.469803l0,142.298676c0,20.204437 -24.47583,20.204437 -24.47583,0l0,-142.298676c-8.622772,0 -16.131165,-7.464752 -16.131165,-18.681366l0,-78.281837c0,-6.839371 8.760925,-7.112961 8.760925,0.234497l0,57.880898l7.33551,0l0,-58.388954c0,-6.292267 8.413208,-6.68309 8.413208,0.27356l0,58.115395l7.613617,0l0,-58.310783c0,-6.565857 8.170868,-6.839417 8.170868,0.234482l0,58.076302l7.473602,0l0,-58.310783c0,-6.487671 8.552277,-6.761261 8.552277,0.234482l0,79.454308z" clip-rule="evenodd"/>
  <path id="svg_47" fill-rule="evenodd" fill="#ff2a70" d="m319.998779,105.200455c73.760437,0 133.625702,60.390457 133.625702,134.799515c0,74.409119 -59.865265,134.799591 -133.625702,134.799591c-73.761642,0 -133.62326,-60.390472 -133.62326,-134.799591c0,-74.410233 59.862839,-134.799515 133.62326,-134.799515" clip-rule="evenodd"/>
  <path id="svg_48" fill-rule="evenodd" fill="#ff2a70" d="m319.999939,113.44809c69.855835,0 126.553192,56.696106 126.553192,126.55191c0,69.855743 -56.697357,126.55191 -126.553192,126.55191c-69.856903,0 -126.553055,-56.694946 -126.553055,-126.55191c0,-69.85701 56.696152,-126.55191 126.553055,-126.55191" clip-rule="evenodd"/>
  <path id="svg_49" fill-rule="evenodd" fill="#ff2a70" d="m319.998749,120.495667c65.622406,0 118.880768,53.537521 118.880768,119.504318c0,65.966812 -53.258362,119.504349 -118.880768,119.504349c-65.619934,0 -118.87825,-53.537537 -118.87825,-119.504349c0,-65.966797 53.258316,-119.504318 118.87825,-119.504318" clip-rule="evenodd"/>
  <switch>
   <g id="svg_1"/>
  </switch>
  <path id="svg_55" fill-rule="evenodd" fill="#ff2a70" d="m320.000031,127.741882c61.609314,0 111.609161,50.29129 111.609161,112.258118c0,61.965546 -49.999847,112.258118 -111.609161,112.258118c-61.609344,0 -111.609207,-50.292572 -111.609207,-112.258118c0,-61.966827 50.001175,-112.258118 111.609207,-112.258118" clip-rule="evenodd"/>
  <path id="svg_56" fill-rule="evenodd" fill="#ff2a70" d="m495.458008,128.740555l0,229.073532c0,20.49762 -23.456787,20.173462 -23.456787,0l0,-90.859589l-12.459229,0l0,-138.213943c0,-32.163292 35.916016,-32.163292 35.916016,0l0,0z" clip-rule="evenodd"/>
  <path id="svg_58" fill-rule="evenodd" fill="#ff2a70" d="m484.000458,266.828003l-1.631439,0c-3.589569,0 -6.501495,1.581879 -6.501495,3.534943l0,84.274139c0,1.953064 2.911041,3.534912 6.501495,3.534912l3.261963,0c3.59137,0 6.501526,-1.581848 6.501526,-3.534912l0,-84.274139c0,-1.953064 -2.908386,-3.534943 -6.501526,-3.534943l-1.630524,0z" clip-rule="evenodd"/>
  <path id="svg_60" fill-rule="evenodd" fill="#ff2a70" d="m160.352905,224.536987l-1.629166,0c-3.590759,0 -6.501755,2.315979 -6.501755,5.172821l0,123.26236c0,2.856842 2.909927,5.172821 6.501755,5.172821l3.261551,0c3.589661,0 6.501709,-2.315155 6.501709,-5.172821l0,-123.26236c0,-2.856842 -2.91098,-5.172821 -6.501709,-5.172821l-1.632385,0z" clip-rule="evenodd"/>
 </g>
</svg>